<?xml version="1.0" encoding="UTF-8"?>
<svg id="Layer_1" data-name="Layer 1" xmlns="http://www.w3.org/2000/svg" viewBox="0 0 766.81 153.17">
  <defs>
    <style>
      .cls-1 {
        fill: #fff;
      }

      .cls-2 {
        fill: #214995;
      }
    </style>
  </defs>
  <path class="cls-1" d="M721.46,18.24l-24.81,39.97-24.65-39.92-43.53,.06,48.42,63.21v52.7l39.36-.21v-51.74l48.7-64.12-43.48,.06Zm-207.49,23.44l34.97-.04,.08,92.6h39.03l-.1-92.67,34.98-.03-.03-23.2-108.94,.08v23.27Zm-46.74,92.63h39.33l-.11-115.74-39.35,.06,.13,115.68Zm-64.69-23.16c-23.56,.03-42.71-13.12-42.71-34.27s19.08-34.5,42.62-34.5c12.62,0,23.95,3.8,31.74,10.58l25.42-19.54c-14.77-10.72-34.93-17.24-57.16-17.24-45.06,.05-81.62,24.14-81.57,60.12,.04,37.12,36.58,60.13,81.66,60.06,22.44,0,42.72-6.65,57.46-17.37l-25.12-19.92c-7.8,7.42-19.44,12.07-32.34,12.07m-296.4-1.03H40.43v-23.34h57.22s-2.14-7.56,0-22.37H40.4v-23.81H106.93s8.55-12.42,22.25-21.71H1.87l.08,114.55h126.47s-14.97-9.52-22.29-23.32"/>
  <path class="cls-1" d="M141.52,76.59c0-40.33,32.71-72.99,73.03-72.99s73.02,32.66,73.02,72.99-32.7,72.98-73.02,72.98-73.03-32.67-73.03-72.98"/>
  <polygon class="cls-2" points="191.65 130.29 191.65 106.12 235.93 77.3 191.65 49.21 191.65 24.72 270.7 77.46 191.65 130.29"/>
</svg>